<?xml version="1.0" standalone="no"?>
<!DOCTYPE svg PUBLIC "-//W3C//DTD SVG 20010904//EN"
 "http://www.w3.org/TR/2001/REC-SVG-20010904/DTD/svg10.dtd">
<svg version="1.0" xmlns="http://www.w3.org/2000/svg"
 width="1600.000000pt" height="1600.000000pt" viewBox="0 0 1600.000000 1600.000000"
 preserveAspectRatio="xMidYMid meet">
<metadata>
Created by potrace 1.11, written by Peter Selinger 2001-2013
</metadata>
<g transform="translate(0.000000,1600.000000) scale(0.100000,-0.100000)"
fill="#000000" stroke="none">
<path d="M7520 14484 c-1313 -100 -2540 -580 -3566 -1396 -372 -295 -747 -670
-1042 -1042 -592 -745 -1011 -1600 -1232 -2518 -119 -497 -180 -1011 -180
-1528 0 -1477 493 -2890 1412 -4046 295 -372 670 -747 1042 -1042 745 -592
1600 -1011 2518 -1232 497 -119 1011 -180 1528 -180 1477 0 2890 493 4046
1412 372 295 747 670 1042 1042 592 745 1011 1600 1232 2518 119 497 180 1011
180 1528 0 1477 -493 2890 -1412 4046 -295 372 -670 747 -1042 1042 -929 738
-2024 1203 -3196 1357 -412 54 -932 69 -1330 39z m900 -1005 c1094 -83 2132
-489 2990 -1168 317 -251 650 -584 901 -901 495 -625 854 -1366 1039 -2144
145 -612 182 -1302 104 -1946 -120 -986 -521 -1944 -1143 -2730 -251 -317
-584 -650 -901 -901 -625 -495 -1366 -854 -2144 -1039 -612 -145 -1302 -182
-1946 -104 -986 120 -1944 521 -2730 1143 -317 251 -650 584 -901 901 -495
625 -854 1366 -1039 2144 -145 612 -182 1302 -104 1946 99 818 393 1621 848
2319 823 1262 2140 2140 3608 2406 461 84 956 110 1418 74z"/>
<path d="M7700 10993 c-115 -8 -348 -47 -478 -79 -1088 -267 -1920 -1098
-2186 -2186 -66 -269 -80 -396 -80 -728 0 -332 14 -459 80 -728 266 -1088
1098 -1920 2186 -2186 409 -100 876 -113 1278 -36 842 163 1570 679 2017 1430
67 111 129 238 121 245 -8 9 -881 455 -883 452 -1 -1 -30 -54 -64 -117 -307
-564 -837 -940 -1459 -1036 -144 -22 -441 -22 -581 0 -367 57 -710 207 -976
427 -78 64 -230 217 -292 294 -117 145 -259 403 -318 580 -38 116 -73 258 -92
376 -22 141 -22 457 0 598 58 367 208 710 428 976 64 78 217 230 294 292 145
117 403 259 580 318 237 78 417 108 665 108 331 -1 587 -59 867 -198 376 -186
679 -479 884 -855 34 -63 63 -116 64 -117 2 -3 875 443 883 452 8 7 -54 134
-121 245 -250 420 -603 782 -1012 1037 -375 234 -792 377 -1245 428 -121 13
-429 18 -560 8z"/>
</g>
</svg>
